<svg width="115" height="64" viewBox="0 0 115 64" fill="none" xmlns="http://www.w3.org/2000/svg">
<path d="M110.047 4.4086C110.273 4.3521 110.461 4.22026 110.593 4.01309C110.744 3.82475 110.819 3.57991 110.819 3.31623C110.819 2.99606 110.706 2.73238 110.48 2.50638C110.254 2.28037 109.99 2.1862 109.651 2.1862H107.937V5.97182H108.653V4.50277H109.331L110.084 5.97182H110.932L110.065 4.42744L110.047 4.4086ZM109.256 3.99426H108.634V2.71355H109.35C109.576 2.71355 109.745 2.77005 109.877 2.88305C110.009 2.99606 110.065 3.14673 110.065 3.3539C110.065 3.78708 109.783 3.99426 109.237 3.99426H109.256ZM110.047 4.4086C110.273 4.3521 110.461 4.22026 110.593 4.01309C110.744 3.82475 110.819 3.57991 110.819 3.31623C110.819 2.99606 110.706 2.73238 110.48 2.50638C110.254 2.28037 109.99 2.1862 109.651 2.1862H107.937V5.97182H108.653V4.50277H109.331L110.084 5.97182H110.932L110.065 4.42744L110.047 4.4086ZM109.256 3.99426H108.634V2.71355H109.35C109.576 2.71355 109.745 2.77005 109.877 2.88305C110.009 2.99606 110.065 3.14673 110.065 3.3539C110.065 3.78708 109.783 3.99426 109.237 3.99426H109.256ZM110.047 4.4086C110.273 4.3521 110.461 4.22026 110.593 4.01309C110.744 3.82475 110.819 3.57991 110.819 3.31623C110.819 2.99606 110.706 2.73238 110.48 2.50638C110.254 2.28037 109.99 2.1862 109.651 2.1862H107.937V5.97182H108.653V4.50277H109.331L110.084 5.97182H110.932L110.065 4.42744L110.047 4.4086ZM109.256 3.99426H108.634V2.71355H109.35C109.576 2.71355 109.745 2.77005 109.877 2.88305C110.009 2.99606 110.065 3.14673 110.065 3.3539C110.065 3.78708 109.783 3.99426 109.237 3.99426H109.256ZM110.047 4.4086C110.273 4.3521 110.461 4.22026 110.593 4.01309C110.744 3.82475 110.819 3.57991 110.819 3.31623C110.819 2.99606 110.706 2.73238 110.48 2.50638C110.254 2.28037 109.99 2.1862 109.651 2.1862H107.937V5.97182H108.653V4.50277H109.331L110.084 5.97182H110.932L110.065 4.42744L110.047 4.4086ZM109.256 3.99426H108.634V2.71355H109.35C109.576 2.71355 109.745 2.77005 109.877 2.88305C110.009 2.99606 110.065 3.14673 110.065 3.3539C110.065 3.78708 109.783 3.99426 109.237 3.99426H109.256ZM110.047 4.4086C110.273 4.3521 110.461 4.22026 110.593 4.01309C110.744 3.82475 110.819 3.57991 110.819 3.31623C110.819 2.99606 110.706 2.73238 110.48 2.50638C110.254 2.28037 109.99 2.1862 109.651 2.1862H107.937V5.97182H108.653V4.50277H109.331L110.084 5.97182H110.932L110.065 4.42744L110.047 4.4086ZM109.256 3.99426H108.634V2.71355H109.35C109.576 2.71355 109.745 2.77005 109.877 2.88305C110.009 2.99606 110.065 3.14673 110.065 3.3539C110.065 3.78708 109.783 3.99426 109.237 3.99426H109.256ZM110.047 4.4086C110.273 4.3521 110.461 4.22026 110.593 4.01309C110.744 3.82475 110.819 3.57991 110.819 3.31623C110.819 2.99606 110.706 2.73238 110.48 2.50638C110.254 2.28037 109.99 2.1862 109.651 2.1862H107.937V5.97182H108.653V4.50277H109.331L110.084 5.97182H110.932L110.065 4.42744L110.047 4.4086ZM109.256 3.99426H108.634V2.71355H109.35C109.576 2.71355 109.745 2.77005 109.877 2.88305C110.009 2.99606 110.065 3.14673 110.065 3.3539C110.065 3.78708 109.783 3.99426 109.237 3.99426H109.256ZM112.005 1.28217C111.271 0.585314 110.367 0.265137 109.274 0.265137C108.182 0.265137 107.259 0.604148 106.544 1.28217C105.809 1.97902 105.451 2.82655 105.451 3.82475V4.37093C105.451 5.42564 105.809 6.31083 106.544 7.00769C107.259 7.70454 108.182 8.04355 109.293 8.04355C110.404 8.04355 111.309 7.68571 112.024 7.00769C112.759 6.31083 113.117 5.42564 113.117 4.37093V3.82475C113.117 2.82655 112.759 1.99786 112.024 1.28217H112.005ZM112.382 4.37093C112.382 5.2373 112.081 5.93415 111.497 6.48034C110.894 7.04535 110.16 7.30903 109.274 7.30903C108.389 7.30903 107.636 7.02652 107.052 6.48034C106.468 5.93415 106.186 5.2373 106.186 4.37093V3.82475C106.186 3.2974 106.318 2.82655 106.581 2.39337C106.845 1.96019 107.203 1.64001 107.674 1.37634C108.163 1.1315 108.691 0.99966 109.274 0.99966C110.16 0.99966 110.894 1.28217 111.478 1.82835C112.081 2.37454 112.363 3.05256 112.363 3.84358V4.38977L112.382 4.37093ZM110.593 4.01309C110.744 3.82475 110.819 3.57991 110.819 3.31623C110.819 2.99606 110.706 2.73238 110.48 2.50638C110.254 2.28037 109.99 2.1862 109.651 2.1862H107.937V5.97182H108.653V4.50277H109.331L110.084 5.97182H110.932L110.065 4.42744C110.291 4.37093 110.48 4.2391 110.612 4.03192L110.593 4.01309ZM109.256 3.99426H108.634V2.71355H109.35C109.576 2.71355 109.745 2.77005 109.877 2.88305C110.009 2.99606 110.065 3.14673 110.065 3.3539C110.065 3.78708 109.783 3.99426 109.237 3.99426H109.256ZM110.047 4.4086C110.273 4.3521 110.461 4.22026 110.593 4.01309C110.744 3.82475 110.819 3.57991 110.819 3.31623C110.819 2.99606 110.706 2.73238 110.48 2.50638C110.254 2.28037 109.99 2.1862 109.651 2.1862H107.937V5.97182H108.653V4.50277H109.331L110.084 5.97182H110.932L110.065 4.42744L110.047 4.4086ZM109.256 3.99426H108.634V2.71355H109.35C109.576 2.71355 109.745 2.77005 109.877 2.88305C110.009 2.99606 110.065 3.14673 110.065 3.3539C110.065 3.78708 109.783 3.99426 109.237 3.99426H109.256ZM110.047 4.4086C110.273 4.3521 110.461 4.22026 110.593 4.01309C110.744 3.82475 110.819 3.57991 110.819 3.31623C110.819 2.99606 110.706 2.73238 110.48 2.50638C110.254 2.28037 109.99 2.1862 109.651 2.1862H107.937V5.97182H108.653V4.50277H109.331L110.084 5.97182H110.932L110.065 4.42744L110.047 4.4086ZM109.256 3.99426H108.634V2.71355H109.35C109.576 2.71355 109.745 2.77005 109.877 2.88305C110.009 2.99606 110.065 3.14673 110.065 3.3539C110.065 3.78708 109.783 3.99426 109.237 3.99426H109.256ZM110.047 4.4086C110.273 4.3521 110.461 4.22026 110.593 4.01309C110.744 3.82475 110.819 3.57991 110.819 3.31623C110.819 2.99606 110.706 2.73238 110.48 2.50638C110.254 2.28037 109.99 2.1862 109.651 2.1862H107.937V5.97182H108.653V4.50277H109.331L110.084 5.97182H110.932L110.065 4.42744L110.047 4.4086ZM109.256 3.99426H108.634V2.71355H109.35C109.576 2.71355 109.745 2.77005 109.877 2.88305C110.009 2.99606 110.065 3.14673 110.065 3.3539C110.065 3.78708 109.783 3.99426 109.237 3.99426H109.256ZM110.047 4.4086C110.273 4.3521 110.461 4.22026 110.593 4.01309C110.744 3.82475 110.819 3.57991 110.819 3.31623C110.819 2.99606 110.706 2.73238 110.48 2.50638C110.254 2.28037 109.99 2.1862 109.651 2.1862H107.937V5.97182H108.653V4.50277H109.331L110.084 5.97182H110.932L110.065 4.42744L110.047 4.4086ZM109.256 3.99426H108.634V2.71355H109.35C109.576 2.71355 109.745 2.77005 109.877 2.88305C110.009 2.99606 110.065 3.14673 110.065 3.3539C110.065 3.78708 109.783 3.99426 109.237 3.99426H109.256Z" fill="#403D36"/>
<path d="M0 2.01709V6.65024H7.77842V27.9138H13.2026V6.65024H20.9622V2.01709H0Z" fill="#403D36"/>
<path d="M36.9713 19.3248V17.7051C36.9713 16.1419 36.7641 14.7482 36.3498 13.5052C35.9354 12.281 35.3327 11.2263 34.5417 10.3787C33.7507 9.51237 32.7713 8.87201 31.6224 8.42C30.4736 7.96799 29.1552 7.72314 27.705 7.72314C26.2548 7.72314 24.8987 7.96799 23.731 8.45767C22.5633 8.94735 21.5651 9.62537 20.7364 10.5294C19.9077 11.4146 19.2862 12.5258 18.853 13.8065C18.4199 15.0872 18.1938 16.5374 18.1938 18.1571C18.1938 19.7769 18.4199 21.1894 18.853 22.4701C19.2862 23.7508 19.9077 24.8055 20.7364 25.6907C21.5651 26.5759 22.5633 27.2351 23.7499 27.706C24.9364 28.1768 26.2924 28.4028 27.7992 28.4028C29.0045 28.4028 30.1157 28.271 31.1328 27.9696C32.1498 27.6871 33.0538 27.2916 33.8448 26.7643C34.617 26.2369 35.2574 25.5966 35.7659 24.8432C36.2744 24.0898 36.6323 23.2611 36.8394 22.3194H31.9803C31.6978 22.9786 31.2269 23.4872 30.5489 23.845C29.8521 24.2028 29.0045 24.3723 27.9498 24.3723C27.253 24.3723 26.6503 24.2593 26.0853 24.0333C25.5391 23.8073 25.0682 23.4871 24.6727 23.0728C24.296 22.6585 23.9759 22.1688 23.7687 21.5849C23.5427 21.0011 23.4297 20.3419 23.4108 19.5885V19.3248H36.9901H36.9713ZM23.8252 14.2209C24.0512 13.7123 24.3525 13.2603 24.7292 12.8836C25.1059 12.507 25.5579 12.2245 26.0476 12.0173C26.5373 11.8101 27.1023 11.7159 27.7238 11.7159C28.948 11.7159 29.9274 12.0926 30.6619 12.8648C31.3964 13.6182 31.792 14.6729 31.8485 15.9912H23.4108C23.4485 15.3509 23.5992 14.767 23.8252 14.2397V14.2209Z" fill="#403D36"/>
<path d="M49.2885 18.063L55.5037 8.38232H49.797L46.2939 14.8235H45.9737L42.4706 8.38232H36.4814L42.7155 18.289L36.5003 27.9696H42.0563L45.7289 21.5849H46.0491L49.7217 27.9696H55.5414L49.2697 18.063H49.2885Z" fill="#403D36"/>
<path d="M68.3109 12.4892V8.38343H64.1863V3.46777H58.9504V8.38343H55.8805V12.4892H58.9504V22.6407C58.9504 23.6013 59.0823 24.4299 59.3271 25.108C59.5531 25.786 59.9486 26.351 60.4948 26.7842C61.041 27.2174 61.719 27.5375 62.5665 27.7447C63.4141 27.9519 64.4499 28.0461 65.6553 28.0461C66.145 28.0461 66.6347 28.0084 67.0867 27.9707C67.5575 27.9331 67.9342 27.8766 68.2732 27.8012V23.8084C68.0095 23.8084 67.7835 23.8461 67.5764 23.8649C67.3504 23.8649 67.0867 23.8649 66.7288 23.8649C65.8436 23.8649 65.1845 23.6578 64.7889 23.2434C64.3746 22.8291 64.1674 22.2075 64.1674 21.3412V12.4327H68.2921L68.3109 12.4892Z" fill="#403D36"/>
<path d="M76.0892 8.38232H70.8534V27.9885H76.0892V8.38232Z" fill="#403D36"/>
<path d="M79.6866 0.623535V27.9704H84.9036V0.623535H79.6866Z" fill="#403D36"/>
<path d="M105.602 19.3825V17.7627C105.602 16.1995 105.395 14.8058 104.98 13.5628C104.566 12.3386 103.963 11.2839 103.172 10.4363C102.381 9.56999 101.402 8.92963 100.253 8.47762C99.1041 8.0256 97.8045 7.78076 96.3355 7.78076C94.8664 7.78076 93.5292 8.0256 92.3615 8.51529C91.1938 9.00497 90.1956 9.68299 89.3669 10.587C88.5382 11.4722 87.8979 12.5834 87.4647 13.8641C87.0315 15.1448 86.8243 16.595 86.8243 18.2148C86.8243 19.8345 87.0315 21.247 87.4647 22.5277C87.8979 23.8084 88.5194 24.8631 89.3481 25.7483C90.1768 26.6335 91.175 27.2927 92.3615 27.7636C93.5481 28.2344 94.9041 28.4604 96.4108 28.4604C97.6162 28.4604 98.7462 28.3286 99.7444 28.0272C100.761 27.7447 101.684 27.3492 102.457 26.8219C103.229 26.2945 103.869 25.6542 104.378 24.9008C104.886 24.1475 105.244 23.3188 105.451 22.3771H100.592C100.328 23.0363 99.8386 23.5448 99.1606 23.9026C98.4637 24.2605 97.6162 24.43 96.5615 24.43C95.8646 24.43 95.2619 24.317 94.6969 24.091C94.1507 23.8649 93.6799 23.5448 93.2844 23.1304C92.9077 22.7161 92.5875 22.2264 92.3804 21.6425C92.1543 21.0587 92.0413 20.3995 92.0225 19.6461V19.3825H105.602ZM92.4369 14.2785C92.6629 13.77 92.9642 13.3179 93.3409 12.9413C93.7176 12.5646 94.1696 12.2821 94.6593 12.0749C95.1489 11.8677 95.714 11.7736 96.3355 11.7736C97.5597 11.7736 98.5391 12.1502 99.2736 12.9224C100.008 13.6758 100.404 14.7305 100.46 16.0489H92.0225C92.0602 15.4085 92.2109 14.8247 92.4369 14.2973V14.2785Z" fill="#403D36"/>
<path d="M20.774 46.7666C20.4726 45.9756 20.0394 45.2787 19.4368 44.6949C18.8152 44.0922 18.0619 43.5837 17.1202 43.1505C16.1597 42.7173 15.0485 42.3783 13.7489 42.0958L10.6225 41.4366C9.09693 41.1164 8.00456 40.7021 7.34537 40.2124C6.68618 39.7227 6.34717 39.0823 6.34717 38.2725C6.34717 37.7828 6.44134 37.3308 6.66735 36.9353C6.89336 36.5398 7.1947 36.1819 7.59021 35.9182C7.98573 35.6357 8.45657 35.4286 9.00276 35.2779C9.56778 35.1272 10.1705 35.0519 10.8673 35.0519C11.5077 35.0519 12.1292 35.1272 12.6754 35.2779C13.2404 35.4474 13.7112 35.6734 14.1256 35.9747C14.5399 36.2761 14.8789 36.6339 15.1426 37.0671C15.4063 37.4815 15.5758 37.9523 15.6323 38.4608H20.7363C20.6986 37.312 20.435 36.2573 19.9264 35.3156C19.4368 34.355 18.7399 33.5263 17.8547 32.8483C16.9883 32.1515 15.9525 31.6241 14.7471 31.2474C13.5606 30.8708 12.2422 30.6636 10.8297 30.6636C9.34177 30.6636 7.96689 30.8708 6.76152 31.2474C5.53731 31.6241 4.50145 32.1703 3.63509 32.886C2.76872 33.5828 2.0907 34.4492 1.61985 35.4286C1.14901 36.4268 0.922999 37.538 0.922999 38.7622C0.922999 42.7173 3.25841 45.1845 7.94806 46.1639L11.3193 46.8796C12.1104 47.0491 12.8072 47.2374 13.3722 47.4446C13.9372 47.6706 14.3893 47.8966 14.7471 48.1603C15.105 48.424 15.3686 48.7253 15.5381 49.0455C15.7076 49.3845 15.8018 49.7424 15.8018 50.1567C15.8018 50.6464 15.67 51.0984 15.444 51.5127C15.218 51.9271 14.8789 52.2661 14.4458 52.5674C14.0126 52.8688 13.5229 53.076 12.9391 53.2455C12.3364 53.415 11.696 53.4903 10.9992 53.4903C10.2458 53.4903 9.53011 53.3961 8.90859 53.2455C8.26823 53.076 7.72205 52.85 7.23237 52.5486C6.76152 52.2473 6.38484 51.8894 6.10233 51.4562C5.80099 51.0231 5.63148 50.5522 5.57498 50.0249H0.320312C0.376814 51.2491 0.659323 52.3226 1.14901 53.2831C1.65752 54.2625 2.37321 55.0912 3.25841 55.7692C4.16244 56.4472 5.23597 56.9746 6.49784 57.3324C7.75972 57.6903 9.15343 57.8786 10.6978 57.8786C12.2422 57.8786 13.7677 57.6903 15.0861 57.2948C16.3668 56.9181 17.478 56.3531 18.3821 55.6185C19.2861 54.9028 20.0018 54.0177 20.4726 52.9818C20.9623 51.9459 21.1883 50.7782 21.1883 49.4598C21.1883 48.4428 21.0565 47.5576 20.7551 46.7666H20.774Z" fill="#403D36"/>
<path d="M36.6696 37.4051V40.6634H36.3494C36.0857 40.1172 35.7467 39.6275 35.3323 39.1755C34.9368 38.7423 34.466 38.3657 33.9575 38.0455C33.449 37.7441 32.8651 37.4993 32.2812 37.3298C31.6597 37.1603 31.0194 37.085 30.3602 37.085C29.1172 37.085 27.9871 37.311 26.9889 37.8007C25.9907 38.2715 25.1432 38.9495 24.4463 39.8159C23.7495 40.7011 23.2221 41.7558 22.8266 43.0177C22.4499 44.2984 22.2616 45.6921 22.2616 47.2741C22.2616 48.8562 22.4499 50.2687 22.8266 51.5494C23.1845 52.8113 23.7118 53.8848 24.3898 54.77C25.0867 55.6552 25.9342 56.3144 26.9136 56.7853C27.8929 57.2561 29.0041 57.5009 30.2472 57.5009C31.6597 57.5009 32.8651 57.1996 33.8821 56.6158C34.8992 56.0507 35.6525 55.2032 36.1987 54.1485H36.5189V63.735H41.7547V37.3675H36.6696V37.4051ZM36.2552 49.7602C36.048 50.4759 35.7655 51.0974 35.37 51.5871C34.9933 52.0956 34.5037 52.4723 33.9575 52.736C33.3925 53.0185 32.7521 53.1503 32.0741 53.1503C31.3961 53.1503 30.7557 53.0185 30.2095 52.7548C29.6445 52.4911 29.1925 52.1144 28.8158 51.6059C28.4391 51.0974 28.1378 50.4759 27.9306 49.7602C27.7234 49.0445 27.6293 48.2158 27.6293 47.293C27.6293 46.3701 27.7234 45.5791 27.9306 44.8634C28.1378 44.1477 28.4203 43.5262 28.8158 43.0365C29.2113 42.5468 29.6633 42.1513 30.2284 41.8876C30.7934 41.6051 31.3961 41.4733 32.0929 41.4733C32.7898 41.4733 33.4113 41.6051 33.9763 41.8876C34.5413 42.1513 35.0122 42.5468 35.3889 43.0365C35.7844 43.545 36.0857 44.1665 36.274 44.901C36.5001 45.6167 36.5942 46.4266 36.5942 47.3306C36.5942 48.2347 36.5001 49.0445 36.274 49.7602H36.2552Z" fill="#403D36"/>
<path d="M57.1045 37.4067V48.8389C57.1045 50.1573 56.7655 51.212 56.0875 51.9654C55.4095 52.7187 54.4113 53.1142 53.1118 53.1142C50.6822 53.1142 49.458 51.7394 49.458 48.9896V37.4256H44.241V50.3268C44.241 51.4757 44.4105 52.5116 44.7306 53.4156C45.0508 54.3196 45.5028 55.0918 46.1055 55.7133C46.7082 56.3348 47.4427 56.8245 48.2903 57.1635C49.1378 57.4837 50.0983 57.6532 51.1719 57.6532C52.6786 57.6532 53.9028 57.3519 54.8256 56.7115C55.7673 56.09 56.4642 55.2048 56.935 54.0371H57.2552V57.22H62.3215V37.4067H57.0857H57.1045Z" fill="#403D36"/>
<path d="M81.0048 40.872C80.647 40.0433 80.1196 39.3276 79.4228 38.7626C78.7259 38.1976 77.8784 37.7455 76.8425 37.4442C75.8255 37.1429 74.6578 36.9922 73.3583 36.9922C72.0587 36.9922 70.9663 37.124 69.9493 37.4065C68.9323 37.689 68.0471 38.0846 67.2749 38.6119C66.5215 39.1204 65.9188 39.7608 65.4668 40.4953C65.0336 41.2487 64.7511 42.0585 64.6758 42.9625H69.4785C69.7045 42.3599 70.1 41.9078 70.7215 41.6065C71.3242 41.2863 72.0964 41.1357 73.0569 41.1357C74.1493 41.1357 74.978 41.3617 75.543 41.8137C76.108 42.2469 76.3905 42.906 76.3905 43.7159V45.3356L71.6067 45.637C69.1395 45.7876 67.2184 46.3527 65.9 47.3697C64.5816 48.3867 63.9413 49.7993 63.9413 51.6073C63.9413 52.5114 64.092 53.34 64.4121 54.0746C64.7323 54.8091 65.1655 55.4306 65.7493 55.958C66.3144 56.4665 67.0112 56.8808 67.8022 57.1633C68.5933 57.4458 69.4596 57.5965 70.4202 57.5965C71.7009 57.5965 72.8686 57.3328 73.8856 56.8432C74.9026 56.3346 75.656 55.619 76.1645 54.6961H76.4847V57.2952H81.551V43.7724C81.551 42.7177 81.3627 41.776 80.986 40.9473L81.0048 40.872ZM76.3905 50.0441C76.3905 50.5338 76.2775 51.0046 76.0703 51.4378C75.8443 51.871 75.5618 52.2477 75.1851 52.5679C74.7896 52.9069 74.3565 53.1517 73.8291 53.3212C73.3018 53.4907 72.7367 53.5849 72.134 53.5849C71.23 53.5849 70.4955 53.3777 69.9305 52.9634C69.3466 52.549 69.0641 51.9652 69.0641 51.2306C69.0641 49.7993 70.1753 48.9894 72.3977 48.8387L76.3905 48.5751V50.0441Z" fill="#403D36"/>
<path d="M95.6952 37.1603C95.3185 37.1226 94.9418 37.085 94.584 37.085C93.9436 37.085 93.3598 37.1791 92.7948 37.3675C92.2297 37.537 91.7401 37.8007 91.288 38.102C90.8549 38.4033 90.4593 38.78 90.158 39.1944C89.8567 39.6275 89.6306 40.0796 89.4988 40.5692H89.1786V37.4051H84.1123V57.2184H89.3481V46.2383C89.3481 45.5414 89.4611 44.9199 89.706 44.3737C89.932 43.8087 90.271 43.3567 90.6854 42.9612C91.1185 42.5656 91.627 42.2643 92.2109 42.076C92.7947 41.8688 93.4351 41.7746 94.1508 41.7746C94.3768 41.7746 94.6028 41.7746 94.8477 41.8123C95.0925 41.8123 95.3373 41.8499 95.5633 41.8876C95.7893 41.9253 95.9965 41.9441 96.1849 41.9818C96.3732 42.0195 96.5239 42.076 96.618 42.0948V37.3298C96.392 37.2545 96.0907 37.1791 95.6952 37.1603Z" fill="#403D36"/>
<path d="M114.981 48.5751V46.9742C114.981 45.411 114.774 44.0172 114.36 42.7742C113.927 41.55 113.343 40.4953 112.552 39.6478C111.742 38.7814 110.781 38.1411 109.632 37.6702C108.484 37.2182 107.165 36.9922 105.715 36.9922C104.265 36.9922 102.928 37.237 101.76 37.7267C100.592 38.2164 99.5751 38.8944 98.7652 39.7984C97.9554 40.7025 97.315 41.7948 96.8818 43.0755C96.4487 44.3563 96.2227 45.8065 96.2227 47.4262C96.2227 49.0459 96.4487 50.4585 96.863 51.7392C97.2962 53.001 97.9177 54.0746 98.7464 54.9598C99.5751 55.845 100.573 56.5041 101.76 56.975C102.946 57.4458 104.284 57.6719 105.79 57.6719C107.014 57.6719 108.126 57.54 109.143 57.2387C110.16 56.9562 111.064 56.5606 111.836 56.0333C112.608 55.5059 113.249 54.8656 113.776 54.1122C114.303 53.3589 114.642 52.5302 114.849 51.5885H109.99C109.708 52.2477 109.237 52.7562 108.54 53.114C107.843 53.4719 106.996 53.6414 105.941 53.6414C105.263 53.6414 104.66 53.5284 104.095 53.3024C103.53 53.0764 103.078 52.7562 102.683 52.3418C102.287 51.9275 101.986 51.4378 101.76 50.854C101.534 50.2701 101.421 49.6109 101.402 48.8576V48.5751H115H114.981ZM101.835 43.4899C102.061 42.9814 102.363 42.5294 102.739 42.1527C103.097 41.7948 103.549 41.4935 104.058 41.2863C104.547 41.0792 105.112 40.985 105.734 40.985C106.958 40.985 107.937 41.3617 108.672 42.1339C109.388 42.8872 109.783 43.9419 109.84 45.2603H101.421C101.458 44.6011 101.59 44.0361 101.835 43.5087V43.4899Z" fill="#403D36"/>
<path d="M76.0892 0.623535H70.8534V5.85937H76.0892V0.623535Z" fill="#403D36"/>
</svg>
